<svg xmlns="http://www.w3.org/2000/svg" width="60" height="60" viewBox="0 0 383.11 375.6"><path d="M383.11,250.63c-.57.15-.64.63-.8,1.11-2.37,7.46-7.48,12.12-14.84,14.48-7.79,2.5-15.57,5-23.38,7.47a7.57,7.57,0,0,0-4.54,3.55C328.16,296.39,312,310.5,292.7,321.15a5.65,5.65,0,0,0-3.31,4.44c-2.26,12.85-4.76,25.65-7.31,38.44-1.44,7.25-6.64,11.48-13.92,11.53q-12.72.07-25.44,0c-7.13,0-12.22-4.07-13.85-11.15a147.2,147.2,0,0,1-3.31-17.19c-.41-4-2.2-4.21-5.33-3.76a206.81,206.81,0,0,1-32.8,1.94c-6.22-.1-12.45-.55-18.64-1.18-2.41-.25-3,.71-3.37,2.66-1,5.5-2,11-3.06,16.49-1.48,7.82-6.63,12.16-14.52,12.2q-12.34,0-24.7,0c-7.63,0-13-4.37-14.49-11.88-2.34-11.82-4.66-23.65-6.74-35.51a6.19,6.19,0,0,0-3.47-4.79c-30.38-17.54-48.91-43.46-54.84-78.13A134.48,134.48,0,0,1,42,217.68c0-1,1.06-2.57-1-3-1.68-.34-2.05.93-2.7,1.95-6.81,10.79-15.76,18.5-28.95,20.1a15.47,15.47,0,0,1-3.72.12C2.14,236.44,0,234.11,0,231s2-5.49,5.52-5.82A28.79,28.79,0,0,0,26.1,214.44c.37-.46.68-1,1.18-1.7-4.85-1.46-9.58-2.5-13.77-4.92-5.46-3.15-9.5-7.2-9.12-14.19C5.08,181,18.72,173.49,29.48,180c7.71,4.63,11.37,11.87,12.41,20.62.11.95-.32,2,.51,3,1.74-.47,1.43-2.14,1.62-3.26,5.77-33,23.34-57.88,51.94-75.1,3.86-2.33,7.26-1.84,9.05,1.26,1.68,2.92.58,6.14-3.11,8.36-23.53,14.14-39.52,34.1-45.38,61.09-6.83,31.47-3.91,61.65,15.07,88.87,8.71,12.49,20.12,22.06,33.43,29.29A14.23,14.23,0,0,1,112.93,325c2.09,12,4.54,23.91,6.73,35.89.47,2.58,1.71,3.57,4.29,3.54q11.6-.12,23.19,0c2.58,0,3.76-1,4.19-3.6,1-6.38,2.43-12.69,3.58-19,1.25-6.92,4.61-9.5,11.69-8.89,19.06,1.64,38.08,1.67,57-1.23,7-1.07,10.79,1.81,12.08,8.82,1.24,6.72,2.55,13.43,3.77,20.15.46,2.58,1.63,3.87,4.49,3.81,7.1-.15,14.21-.05,21.32-.05,5.27,0,5.35-.17,6.35-5.53,2.4-12.94,5-25.86,7.34-38.81a9.62,9.62,0,0,1,5.34-7.18c19.25-10.1,35.24-23.71,46.35-42.68,2.3-3.94,6.05-6.12,10.34-7.48,7.69-2.43,15.37-4.87,23-7.4,5.62-1.85,7.83-4.94,7.85-10.76q0-11.79,0-23.57c0-5.89-2.22-9-7.75-10.84-4.46-1.5-8.93-3-13.44-4.36a18.73,18.73,0,0,1-13.21-13,87.54,87.54,0,0,0-16.9-30.23c-1.35.54-1.36,1.72-1.68,2.56-4.6,12-13.21,18.6-26.14,19.44-17.65,1.14-38.91-7.4-45.84-29.59-3.13-10-2.93-20.16-1.14-30.3.57-3.22.34-4.35-3.19-5.25-4.49-1.14-7.22-.75-10,3.45-4.79,7.2-11.56,12.61-19.17,17.72,2.84.88,5.19,1.59,7.53,2.33,5.25,1.68,7.09,4.1,5.91,7.73s-4.14,4.73-9.19,3.12A147.51,147.51,0,0,0,168,146.8a154,154,0,0,0-42.11,7.35c-4.47,1.43-8-1.25-7.76-5.58a5.19,5.19,0,0,1,3.87-4.93c3-1,6.11-1.94,9.67-3.06-6.37-4.52-12.16-9.11-16.88-14.85-18.3-22.26-23.43-47.41-14-74.47S129.84,7.12,158.26,1.47a75.48,75.48,0,0,1,81.5,38.66c1,1.92,1.87,3.82,1.17,6A5.27,5.27,0,0,1,236.36,50c-2.82.36-4.73-1-6-3.48a67,67,0,0,0-17.12-21c-38.22-31-96.69-8.76-104.63,39.84a65.29,65.29,0,0,0,36.9,69.75c5,2.39,9.74,1.13,14.55.76a149.73,149.73,0,0,1,32.44.85,8.74,8.74,0,0,0,5.06-.74c23.84-11,37.31-29.33,39.7-55.58.41-4.42,2.72-7,6.3-6.73s5.2,2.87,5,7.33a67.62,67.62,0,0,1-5.46,23.84c-1.09,2.55-.26,2.87,1.92,3.66,5.38,1.93,10,1,15.14-1.47,13.55-6.45,27.45-12.15,42.22-15.35a62.71,62.71,0,0,1,6.25-1.06c9.12-1,14.42,2.6,16.8,11.57,2.63,9.92,2.08,20,1.2,30.09a151.61,151.61,0,0,1-2.41,15.08,3.33,3.33,0,0,0,1.07,3.27,102.15,102.15,0,0,1,23.08,38.77,7.81,7.81,0,0,0,5.6,5.44c3.21.94,6.32,2.28,9.57,3,9.8,2.26,16.71,7.62,19.59,17.54ZM315.9,120.19a58.08,58.08,0,0,0-1-13.75c-1-4.67-1.7-5.13-6.39-4.3-16.77,3-32.1,10-47.48,16.88-2.15,1-3.2,2.93-3.66,5.31a76.93,76.93,0,0,0-1.46,16.31c.41,19.33,14.47,32.8,33.79,32.61,9.21-.09,15.43-3.62,18.84-12.63A120.09,120.09,0,0,0,315.9,120.19ZM30.57,201.54c-.76-5.33-2.71-9.44-7.07-12-2.77-1.62-5.06-.58-7,2.6-1.76,2.86-.21,4.35,2.06,5.6A35.46,35.46,0,0,0,30.57,201.54Z" /><path d="M172.09,95.09a60.78,60.78,0,0,1,.39-7.39c.78-6.19-1.24-10.37-8.67-12.89-8.12-2.74-11.24-9.84-10.3-17.91s6.11-13.36,15-15.4c2.11-.48,4.14-.39,3.74-3.58-.16-1.29,1.21-2,2.65-2.05s3.12.62,3,2.11c-.25,3.24,2,2.9,3.81,3.05A23.63,23.63,0,0,1,191,43.59c3.13,1.64,3.95,4.21,2.45,7.16-1.61,3.19-3.91,3.07-6.84,1.69-8.52-4-8.56-3.92-8.56,5.39l-.05.72c-.9,7,.32,12.14,8.38,15.29,8.21,3.21,10.35,11.28,9.47,19.74-.91,8.66-5.82,14.21-14.4,16.56-2.14.58-4,.82-3.51,3.88.26,1.77-1.49,2.52-3.06,2.48s-2.93-.88-2.69-2.48c.44-3-1.53-2.85-3.32-3.06-5.44-.65-10.43-2.33-14.47-6.2-1.67-1.6-2.88-3.42-2.58-5.91a5.66,5.66,0,0,1,2.9-4.52c1.84-1,3.34,0,4.72,1.17,3.05,2.59,6.22,4.91,10.34,5.63,1.81.32,2.44,0,2.35-1.94C172.1,97.82,172.09,96.46,172.09,95.09ZM177.43,81c0,5.43-.08,10.51,0,15.59,0,1.46-1,3.65.78,4.28,1.57.54,3.26-.84,4.62-2a7.94,7.94,0,0,0,2.85-5.06C186.69,87.71,184.33,83.81,177.43,81Zm-4.61-30.83c-6.6,1.32-8.94,3.3-9.21,7.49s2.18,7.46,7,9.3c1.51.57,2.25.65,2.22-1.33C172.77,60.54,172.82,55.46,172.82,50.16Z" /><path d="M321.74,205.13c-.09,9.38-8.61,17.55-18.27,17.51s-18.16-8.18-18.32-17.54c-.06-3.6,2.12-6.23,5.33-6.43s5.26,1.74,5.91,5.37c1,5.7,5.08,8.57,9.67,6.7,2.77-1.14,4.1-3.41,4.48-6.36.5-3.84,2.77-5.93,6-5.71S321.78,201.37,321.74,205.13Z" /></svg>