<svg xmlns="http://www.w3.org/2000/svg" width="60" height="60" viewBox="0 0 478.88 478.99"><path d="M0,37V35.8a12.78,12.78,0,0,1,1.2-5.07,13.8,13.8,0,0,0,.47-2C5.06,17.16,12.48,9.14,23.07,3.68a6.85,6.85,0,0,1,.67-.31A47.46,47.46,0,0,1,42.09,0h1.3a13.79,13.79,0,0,1,2.92.7h0c16.82,3,27.7,13,32.08,29.24,4.15,15.43-.25,28.91-12.12,39.66-2.29,2.07-1.59,3.55-.62,5.57C71.82,88,78.12,100.83,84,113.82c1.6,3.51,3,3.73,6.47,2.64,29.92-9.35,57.92-5,83.84,12.57a93.19,93.19,0,0,1,28.22,30.63c1,1.67,1.55,3.39,4.45,2.14q41.21-17.72,82.55-35.1c1.59-.68,2.59-1.16,1.91-3.33a89.44,89.44,0,0,1-1.31-50.1c.63-2.44-.09-3.24-2.11-4-6.55-2.36-13.11-4.74-19.6-7.26-2.22-.86-3.47-.52-5,1.49-11.35,14.75-28.26,20.09-45.64,13.78-14.06-5.11-22.9-15.58-25.53-30.24s2-27.21,13.14-37.38a30.06,30.06,0,0,1,6.45-4.37A48.69,48.69,0,0,1,234.3,0h3.25c.06.15.09.4.18.42,23.56,6.75,32.89,18.68,33.36,43,0,2.2.9,2.88,2.73,3.52,6.28,2.2,12.59,4.34,18.68,7,3.24,1.4,4.31.42,5.82-2.36,13.26-24.31,33.07-40.61,59.78-48.38C362.17,2,366.59,2.24,370.36,0h23.38c.22.73.8.79,1.44.87,27.38,3.53,49,16.8,65.47,38.76,26.49,35.37,23.89,87.61-6.29,119.94-25,26.77-55.59,37-91.71,29.51-2.7-.56-4.54-.76-5.82,2.86Q339,242.34,320.61,292.53c-1,2.81-.63,4,2,5.34a90.77,90.77,0,0,1,30.05,24c1.59,1.92,2.71,2.26,4.89.82q20.69-13.67,41.55-27a4.27,4.27,0,0,0,1.8-4.9c-2.67-8.06-2.3-16.08.27-24.14,4.92-15.4,20-26.69,36.54-27.15s32.49,9.86,38.25,24.83c6.8,17.65,1.26,36.4-14.09,47.71-14.17,10.45-34.41,9.53-48.75-2.46-2.12-1.77-3.37-1.68-5.53-.25q-20.43,13.5-41.07,26.67c-2.34,1.49-2.55,2.63-1.38,4.94a84.62,84.62,0,0,1,8.3,24.28c5.46,32.83-2.87,61.58-25.81,84.84-23.54,23.86-52.59,33.35-85.64,27.11-35.28-6.66-59.28-27.71-72.48-61-.93-2.35-1.82-3-4.4-2.32-9.92,2.54-19.89,4.84-29.88,7.06-2.66.59-3.71,1.57-3.85,4.53A39.76,39.76,0,0,1,72,424.29c-.78-23.83,19.41-43.09,42.91-41,13.9,1.24,24.18,8.05,31.36,19.85,1,1.66,1.25,4,5.81,1.67a57.19,57.19,0,0,1,26.2-6.55c6,0,6.37-1.33,6-3.92a80.22,80.22,0,0,1-.85-13.5c.95-22.33,8.21-42.25,22.8-59.28,2.73-3.17,2.4-4.83-1.25-8.25a240,240,0,0,1-24.1-26.48c-2.26-2.86-3.54-3.13-5.86-1.37a70.16,70.16,0,0,1-11.79,7.42c-26.07,12.64-52.34,13.89-78.64,3.53-3.62-1.42-5.09-.76-6.9,3.48a88.06,88.06,0,0,1-9,16.29c-2.39,3.4-2.65,5.12-.17,7.66,8.35,8.59,12,18.83,11.07,31-1.36,16.8-13.74,31.17-31,35.3-16.13,3.84-34.33-4-42.72-18.06-2.45-4.11-3.3-8.87-5.83-12.89v-15.9C1.23,343,1.05,341.8,1.26,341,6.89,320.23,28,307.08,49.35,312.54c2.2.56,3-.28,3.92-2,3.7-6.82,7.36-13.68,11.35-20.33,1.61-2.67.94-4-1.33-5.56a83.53,83.53,0,0,1-19.65-19.16C24.13,239.1,19,210,28.52,178.64c6.74-22.07,20.38-39.26,39.85-51.7,2.4-1.53,2.91-2.76,1.58-5.47-6.51-13.21-12.8-26.53-19.09-39.85-.94-2-1.6-2.84-4.34-2.45C31.2,81.34,18.47,76.5,8.47,64.43a28.52,28.52,0,0,1-3.74-6A49.37,49.37,0,0,1,0,37ZM215.58,208.1c-.51,5.86-.63,12.38-2,18.82a95.14,95.14,0,0,1-21.64,43.25c-1.61,1.84-1.82,2.89,0,4.81Q205.58,289.7,219,304.71c1.66,1.86,2.7,2.06,4.86.55,23.1-16.15,48.41-21.8,76.09-15.43,3,.7,4.64.13,5.79-3.1q17.82-50.16,36-100.18c1.06-2.91.8-4.14-2.1-5.61A93.24,93.24,0,0,1,300.45,144c-1.51-2.59-2.58-3.38-5.68-2q-40.15,17.26-80.5,34.1c-2.65,1.11-3.48,2.27-2.52,5.18C214.53,189.74,215.37,198.57,215.58,208.1Zm107.47-61c6.18-14.67,16.68-25.07,31.22-31.43C336.73,95.37,342.18,71.46,355.53,59c15.83-14.78,37.89-15,54.49-.52,13,11.33,20.28,35.58,2,57.22a61.41,61.41,0,0,1,18.82,12.69c5.38,5.43,9.27,11.89,12.53,18.94,27.4-30.88,26.26-81.13-7.71-111.41C403,6.8,351.92,10.23,322.75,43.85,294.37,76.55,299.94,123.51,323.05,147.07ZM59.45,259c5.86-13.85,15.23-24,28.66-30.29,2.49-1.16,2.51-2,.81-3.87a33.2,33.2,0,0,1-6.74-11.58c-5.48-15.77-2.41-30.05,9.1-41.74,11.71-11.89,26.24-14.74,42.11-9.43,16.31,5.46,27.58,23.68,25.85,40.6a41,41,0,0,1-8.88,22.08c-.93,1.18-3,2.25.14,3.67,13.75,6.32,23.36,16.73,29.23,30.7,25.29-27.22,28-75.44-3.24-107.5-30.42-31.2-81-31.79-112.47-1S33.37,229.92,59.45,259ZM339.6,435.15c14.74-18.28,21.25-38.25,18.8-61.12-5.36-50.07-57.2-83-104.72-66.33-37.33,13.06-59,49.45-52.78,88.67a78.41,78.41,0,0,0,15.23,35.07c1.78,2.39,3,3.87,4.6-.25,2.06-5.24,5.48-9.72,9.24-13.92,5.66-6.32,12.68-10.76,20.34-14.39C233,383,238.07,358.93,251.66,346.24c15.45-14.43,37.68-14.7,53.81-1.09C318.28,356,327,380.65,308.11,403,322.74,409.38,333.13,420,339.6,435.15Zm-60.31,27.7A80.44,80.44,0,0,0,323.74,449c2-1.38,2.12-2.74,1.52-4.65-4.26-13.67-13-23.08-26.77-27.35-10.64-3.29-21.72-2.66-32.4-1.3-16.5,2.1-27.42,11.92-32.74,27.88-1,3-.18,4.39,2.27,6A81.52,81.52,0,0,0,279.29,462.85ZM115,287.15c20.94,0,35.89-4.72,49.38-13.91,1.5-1,2-1.66,1.47-3.6-3.07-11.46-9.72-20.07-20.2-25.49-12.37-6.41-25.7-5.38-38.85-4-16,1.7-28.61,13-33.13,28.13-.88,3-.05,4.1,2.14,5.54C89.11,282.62,103.75,287,115,287.15ZM383.43,128c-3.63,0-6.9-.11-10.16,0a39.52,39.52,0,0,0-36.15,28.64c-.72,2.51-.35,3.79,1.86,5.32,25.62,17.72,62.5,17.71,88.2,0,2.3-1.58,2.58-3,1.87-5.37a40.42,40.42,0,0,0-14.64-21C405.06,128.56,394.32,127.24,383.43,128ZM87.91,422.62a24.23,24.23,0,0,0,23.81,24.27c12.8,0,23.78-10.92,23.88-23.78a23.85,23.85,0,0,0-47.69-.49ZM383,111.46A23.72,23.72,0,1,0,383,64a23.72,23.72,0,1,0,0,47.44ZM231.46,63.66A24.05,24.05,0,0,0,255.31,40c.1-12.8-10.71-23.76-23.66-24s-24.12,11-24,24A24,24,0,0,0,231.46,63.66Zm-88.23,135.8a23.62,23.62,0,0,0-23.63-23.69,24,24,0,0,0-23.88,23.59c-.19,12.94,11.12,24.27,24,24A23.93,23.93,0,0,0,143.23,199.46ZM63.66,351.08a24,24,0,0,0-23.72-23.75A24.26,24.26,0,0,0,16,351c-.18,12.87,11.18,24.2,24.1,24A24.05,24.05,0,0,0,63.66,351.08Zm215,47.69a23.66,23.66,0,1,0-23.33-24.07A23.8,23.8,0,0,0,278.66,398.77ZM63.66,39.92A24.08,24.08,0,0,0,40.06,16C27.37,15.81,16.26,26.73,16,39.66s10.85,24,24,24A23.8,23.8,0,0,0,63.66,39.92ZM439.14,303.08a24.14,24.14,0,0,0,23.71-23.81c0-12.81-11.07-23.83-23.87-23.85a24.09,24.09,0,0,0-23.78,24.2A23.8,23.8,0,0,0,439.14,303.08Z" /></svg>