


<svg  width="60" height="60" viewBox="0 0 383.11 383.13"><path d="M184.35,0h14.94a62.8,62.8,0,0,1,8.1.71l.22,0a184.11,184.11,0,0,1,63.82,16.58,180.2,180.2,0,0,1,28.17,16c3.76,2.61,4.55,6.94,2.21,10.48s-6.52,4.39-10.5,2.1a18.9,18.9,0,0,1-2.83-1.81c-1.57-1.34-3.06-1.48-5.12-.91q-22.41,6.21-44.93,12c-2.57.66-3.42,1.85-3.79,5.18a175.23,175.23,0,0,1-13.76,52.31c-1.86,4.19-2,5.6-.13,7.5q21.09,21,42.05,42.07c1.71,1.72,3.07,1.89,6.19.65a231.37,231.37,0,0,1,54-14.42c3.22-.44,4.33-1.41,5-4,3.61-14,7.25-28.11,11.29-42,1.12-3.84.9-6.69-1.49-9.91-3.16-4.27-2.29-8.94,1.55-11.41s8-1.3,10.89,3A190.26,190.26,0,0,1,381,162.52c.39,2.59.48,5.23.82,7.83a143,143,0,0,1,1.3,18.13v13.65a33.14,33.14,0,0,1-.73,5.94c-.06.34,0,.73,0,1.07a164.51,164.51,0,0,1-3.22,21.76c-17.74,84-88.55,145.13-172.19,151.61-32.26,2.5-63.23-2.51-92.76-15.65C29.17,329-16,237.7,5.21,147,22.89,71.57,86.47,13.07,162.54,2.13c2.69-.39,5.45-.43,8.15-.88A83.51,83.51,0,0,1,184.35,0Zm-8.48,253.75c.48-.11,1-.21,1.45-.34,19-5.12,38.06-10.28,57.11-15.32,2.92-.77,3.74-2.12,4.16-7a149.31,149.31,0,0,1,13.79-51c1.71-3.63,1.67-5.26-.26-7.18q-21-20.82-41.78-41.77a4.32,4.32,0,0,0-4.9-1.25q-28.51,7.8-57.11,15.26a4,4,0,0,0-3.27,3.43q-7.55,28.59-15.32,57.12a3.82,3.82,0,0,0,1,4.31Q152,231,173.07,252.23C173.84,253,174.48,254.07,175.87,253.75Zm-12.36,13.14c.88-2.52-.51-3.28-1.43-4.2q-20.87-20.9-41.74-41.79a3.94,3.94,0,0,0-4.52-1.2c-19,5.19-38,10.21-57.1,15.22a4.27,4.27,0,0,0-3.57,3.57q-5.79,22.5-12,44.9a5.25,5.25,0,0,0,.7,4.83A178.41,178.41,0,0,0,95,339.33a5,5,0,0,0,4.5.77q22.41-6.17,44.9-12a4.57,4.57,0,0,0,3.84-3.79c2.33-9.12,4.87-18.19,7.3-27.29C158.28,286.68,161,276.37,163.51,266.89ZM179.84,15.44a180.2,180.2,0,0,0-67.67,18.37c-2.6,1.29-3.44,3.08-3.79,7.26A114.49,114.49,0,0,1,97.85,80.12c-1.72,3.69-1.76,5.31.21,7.26q21.09,21,42.06,42c1.67,1.67,2.95,1.8,6.21.42a208.68,208.68,0,0,1,54.16-14.38c2.9-.38,4-1.35,4.63-3.7q7.47-28.42,15.2-56.78a4.63,4.63,0,0,0-1.38-5.23c-10.29-10.16-20.57-20.34-30.67-30.69C185.56,16.28,183,14.22,179.84,15.44ZM367.67,203c1.69-3.2-1.06-5.61-3.72-8.25q-15.43-15.24-30.68-30.68c-2-2.07-3.62-2.14-8-.15A157.37,157.37,0,0,1,274,177.57c-4,.38-5.42,1.21-6.1,3.77-5.07,19.19-10.14,38.38-15.36,57.52a3.71,3.71,0,0,0,1.23,4.19q21.08,21,42,42.06a3.88,3.88,0,0,0,4.25,1.28q22.62-6.17,45.28-12.16a5.34,5.34,0,0,0,3.82-3.05A180,180,0,0,0,367.67,203ZM15.53,178.72c.41,2.4-1.23,4.8,1.1,7.09,11.29,11.09,22.45,22.33,33.6,33.57a3.87,3.87,0,0,0,4.31,1.09q28.54-7.75,57.14-15.31a4.36,4.36,0,0,0,3.58-3.59c5-19,10-38.07,15.22-57.07a4.74,4.74,0,0,0-1.23-4.61q-21-20.8-41.8-41.77a4.12,4.12,0,0,0-4.57-1.35Q60.47,102.94,38,108.85a6.55,6.55,0,0,0-4.23,3.42A178.69,178.69,0,0,0,15.53,178.72Zm184.6,189.2c4.57-.44,8.54-.76,12.5-1.22A173.65,173.65,0,0,0,271.47,349a4.51,4.51,0,0,0,2.6-3.26c4-15.23,8.17-30.42,12.3-45.62a3.58,3.58,0,0,0-1-4Q264,274.87,242.81,253.51a3.45,3.45,0,0,0-3.92-1C219.62,257.73,200.33,262.84,181,268a3.64,3.64,0,0,0-2.95,2.86q-7.65,29-15.46,57.88a3.58,3.58,0,0,0,.94,4q17,16.86,33.86,33.84C198.37,367.51,199.34,368.14,200.13,367.92Zm6-352.25c7.28,7.26,14.26,13.78,20.67,20.81,3.4,3.75,6.45,4.91,11.43,3.28,9.17-3,18.6-5.19,28.53-7.89A177,177,0,0,0,206.12,15.67ZM351.18,116.28c-3,11.22-5.71,21.87-8.69,32.45a3.89,3.89,0,0,0,1.17,4.51c7.19,7.06,14.28,14.23,21.44,21.33.61.6,1,1.73,2.26,1.51A176.08,176.08,0,0,0,351.18,116.28ZM15.65,206.05a177,177,0,0,0,16.25,60.7c3.1-11.51,6.05-22.48,9-33.43a2.4,2.4,0,0,0-.72-2.65C32.24,222.7,24.27,214.7,15.65,206.05ZM177,367.42c-8.59-8.58-16.66-16.63-24.71-24.7a2.3,2.3,0,0,0-2.23-.61c-5.54,1.48-11.07,2.95-16.59,4.46s-10.95,3-17,4.7A177.2,177.2,0,0,0,177,367.42ZM46.6,90.89C58.24,87.77,69.09,84.82,80,82c1.71-.45,1.93-1.71,2.28-3,1.3-4.78,2.56-9.57,3.82-14.36,1.52-5.74,3-11.47,4.76-18A179,179,0,0,0,46.6,90.89ZM292.32,336.15c14.33-8.66,39.65-34.28,43.28-43.64l-32,8.47a3,3,0,0,0-2.52,2.31C298.25,314.06,295.35,324.81,292.32,336.15Z" /><path d="M321.63,68.86a7.49,7.49,0,0,1,0-15,7.49,7.49,0,1,1,0,15Z" /></svg>