<svg xmlns="http://www.w3.org/2000/svg" width="60" height="60" viewBox="0 0 313.17 302.15"><path d="M313.17,79.5a11.53,11.53,0,0,1-4.35,3.66c-6.26,3.36-12.46,6.85-18.74,10.18a7.53,7.53,0,0,0-3.31,3.34c-3.43,6.46-6.95,12.86-10.47,19.27-2.63,4.78-5.41,5.14-9.31,1.24-2.37-2.38-4.74-4.77-7.13-7.14a5.31,5.31,0,0,1-1.4-5.85c1.26-4,2.3-8,3.63-11.92a3.43,3.43,0,0,0-1-4.24q-7.77-7.12-15.32-14.5c-1.44-1.4-2.05-1.31-3,.49-1.78,3.54-3.7,7-5.76,10.38-1,1.66-.84,2.79.28,4.3a109.4,109.4,0,0,1,20.47,48.94c4.22,27.28-.84,52.84-15.2,76.36A112.22,112.22,0,0,1,138.7,267.44a112.36,112.36,0,0,1-104-122.31,112.49,112.49,0,0,1,70.19-94.29,112.72,112.72,0,0,1,104.48,11c.83.55,1.56,1.33,2.72,1.3,1.48-4.84,2.93-9.69,4.46-14.51a2.89,2.89,0,0,0-.83-3.42c-6.27-6.12-13-11.76-18.85-18.31-1.7-1.9-4.61-1.94-6.93-2.91-1.77-.74-3.33-1.6-3.87-3.54-1-3.64,1.87-6.69,5.73-5.92,1.75.35,2.33.11,2.9-1.76,3.6-11.88,19.24-18.07,29.1-7,4.81,5.4,9.91,10.55,14.79,15.89a3.46,3.46,0,0,0,4.19,1.12c15.29-4.75,30.67-9.23,45.94-14,3.81-1.2,6.56-.72,9.19,2.37,2.5,2.94,5.44,5.5,8.16,8.26,3.6,3.65,3.21,6.76-1.24,9.26q-18.07,10.13-36.19,20.16l-2.87,1.61c5.71,6,11.3,12,16.85,17.91.89,1,1.68.69,2.72.36,4.05-1.3,8.15-2.44,12.2-3.76a5.93,5.93,0,0,1,6.85,1.8c2.84,3.12,5.86,6.08,8.8,9.1ZM230.89,95.6C228,100.89,225.2,106,222.37,111c-2.38,4.22-5.38,4.65-8.77,1.34-3.2-3.14-6.33-6.36-9.63-9.4-2.24-2.06-2.68-4.31-1.79-7.14,2.15-6.76,4.09-13.58,6.29-20.33.65-2,.24-2.94-1.46-4.14a104.45,104.45,0,0,0-23-12.43,73.33,73.33,0,0,0-15.64-4.5,2.55,2.55,0,0,0,.09.56l1.17,1.79c5.45,8.42,7,17.4,3.84,27.05-2.75,8.28-7.76,15.14-13.62,21.43-11.21,12-24.36,22-36.26,33.25-3.54,3.37-7,6.82-9.57,11-3.43,5.72-2.6,9.89,2.59,14.13,4.79,3.91,10.59,6,16,8.74,5,2.57,9.91,5.18,13.9,9.23,5.73,5.83,4.2,13.25-3.52,15.83-19.27,6.42-37.44,3.25-54.7-6.79-10.74-6.24-19.6-14.86-28.94-22.87-3.56-3.05-7.1-6.14-11.36-8.17-3-1.43-3.53-1.09-3.32,2.14a102.45,102.45,0,0,0,57.93,85.77c20.72,10,42.5,12.42,65.08,8.12,1.82-.34,2.12-1,1.93-2.8-1-9.45.47-18.51,5.52-26.68A87.22,87.22,0,0,1,194,204.74a163.9,163.9,0,0,0,16.79-15.58c7.64-8.33,13.66-17.45,14.41-29.19.66-10.29,5.77-17.76,14.57-22.87,1.85-1.07,3.63-2.26,5.56-3.16,1.74-.81,2-1.79,1.52-3.6a101.76,101.76,0,0,0-5.41-16.12A88.87,88.87,0,0,0,230.89,95.6Zm-91,93a24.72,24.72,0,0,0-7.51-5.7c-6.88-3.88-14.4-6.53-20.94-11.11-8.35-5.84-11.21-13.32-8-22.1,2.66-7.41,8.07-12.84,13.62-18.11,11.51-11,24.34-20.45,35.31-32,5-5.22,9.27-10.89,11.45-17.79,3.6-11.34-1.63-20.92-10-28.77a2.34,2.34,0,0,0-1.68-.5,103,103,0,0,0-36.39,4.76A101.13,101.13,0,0,0,63.63,95.22C52.39,110.84,46.3,128.39,44.7,147.53c-.08,1-.08,1.64,1.3,1.78,4.81.49,8.8,2.89,12.58,5.72,7.35,5.5,14,11.87,21,17.74,8.17,6.81,16.94,12.62,27.21,15.81A55.88,55.88,0,0,0,139.93,188.64ZM296,23c-3.87-5.17-3.88-5.19-9.71-3.43-14.56,4.38-29.14,8.69-43.63,13.25-3.61,1.13-6.1.58-8.63-2.24-5.51-6.14-11.28-12-17-18-1.34-1.41-2.74-2.67-4.87-2.83a8.23,8.23,0,0,0-8.12,4.8c-1.54,3.08-1,5.78,1.8,8.5,6.11,5.85,12.22,11.7,18.49,17.37,2.59,2.35,3.26,4.67,2.19,8.08-4.72,15.09-9.11,30.28-13.86,45.35-.9,2.83-.54,4.5,1.62,6.51,1.93,1.79,2.49,1.58,3.69-.62,6.62-12.11,13.41-24.13,20.14-36.18,2.54-4.56,5.31-5.05,9.15-1.46,7.83,7.29,15.56,14.69,23.42,21.94a6.18,6.18,0,0,1,1.83,7.13c-1.24,3.86-2.21,7.81-3.58,11.61-.8,2.19-.18,3.37,1.8,4.41,3-5.48,6-10.78,8.7-16.21a11.24,11.24,0,0,1,5.24-5.22c5.46-2.8,10.81-5.81,16.17-8.71-1.22-2.16-2.63-2.5-4.71-1.75-3.71,1.34-7.58,2.26-11.3,3.58-3,1.07-5.2.29-7.31-2-7-7.65-14.17-15.2-21.29-22.78-4.34-4.62-4-7,1.62-10.06ZM179.24,252.44C229,236.58,255.46,186,248.76,142.64c-7.7,4-13.56,9.07-14.19,18.57a46,46,0,0,1-7.36,22c-5.33,8.31-12.06,15.33-19.39,21.83-8.44,7.49-17.38,14.46-23.52,24.2A32.88,32.88,0,0,0,179.24,252.44Z" /><path d="M284.64,161.53c0-2.34-.16-4.69,0-7,.28-3.17,2.41-5.15,5.05-5.05s4.69,2.15,4.68,5.36c0,4.17-.12,8.35-.46,12.51-.3,3.63-2.48,5.7-5.28,5.52-3-.18-4.71-2.66-4.51-6.45.08-1.62.21-3.25.31-4.87Z"/><path d="M119.19,299.67c-3.83-.95-8.58-2-13.23-3.36a4.69,4.69,0,0,1-2.95-5.93,4.84,4.84,0,0,1,5.81-3.17c4.25.9,8.51,1.84,12.75,2.84,2.84.67,4.67,3.05,4.3,5.43C125.45,298.21,123.3,299.79,119.19,299.67Z" /><path d="M137.65,13.35c-.08,2.15-1.11,3.9-3.16,4.3a149.61,149.61,0,0,1-15,2.28c-2.4.21-4.23-1.37-4.62-4s.8-4.76,3.35-5.37A64.84,64.84,0,0,1,133,8.51,4.48,4.48,0,0,1,137.65,13.35Z" /><path d="M158.11,7.78c3.73.47,7.47.87,11.19,1.43a4.8,4.8,0,0,1,4.38,5.29,4.87,4.87,0,0,1-5.35,4.36c-4.36-.28-8.71-.78-13-1.43-3.15-.48-4.92-2.85-4.51-5.45.43-2.78,2.4-4.19,5.77-4.11.51,0,1,.06,1.53.09Z" /><path d="M81.36,26.64a5,5,0,0,1,3.13-5.07c3.88-1.74,7.78-3.44,11.76-4.94,3.1-1.17,5.67.06,6.7,2.85.91,2.49-.16,4.86-3,6.1-4.18,1.79-8.38,3.57-12.68,5A4.34,4.34,0,0,1,81.36,26.64Z" /><path d="M1.28,134.37c.47-2.66,1.11-7,2-11.24A4.73,4.73,0,0,1,9,119.27a4.71,4.71,0,0,1,3.82,5.65c-.64,4.21-1.4,8.41-2.24,12.58-.7,3.43-2.82,5-5.66,4.53S.89,139.51,1.28,134.37Z" /><path d="M19.64,207c-.11,2.9-1.29,4.5-3.41,5.15s-4.28.27-5.33-1.79a66,66,0,0,1-5.19-14.82c-.5-2.13,1-3.87,3-4.73s4.34-.45,5.41,1.45C16.87,197,18.06,202.41,19.64,207Z" /><path d="M31.59,76.29c-3.4-.11-5.9-3.88-4.24-6.83A50,50,0,0,1,37,57.38c1.79-1.66,4-1.4,5.81.19s2.58,3.8,1.1,6A101.66,101.66,0,0,1,34.79,75C33.91,75.92,32.66,76,31.59,76.29Z"/><path d="M61.26,264.45c.1,4.11-3.77,6.65-6.95,4.62A51.63,51.63,0,0,1,43,258.92a4.32,4.32,0,0,1,.34-6.1c1.75-1.84,4.08-2.24,6.06-.63,3.7,3,7.18,6.31,10.7,9.55A3.34,3.34,0,0,1,61.26,264.45Z" /><path d="M212.85,286.69c-2.72-.33-4.29-1.23-5.1-3.25a4.07,4.07,0,0,1,1.3-5.17,74.09,74.09,0,0,1,13.09-7.56c2.08-.89,3.79-.06,5.13,1.5s1.75,3.9.37,5.32C223.36,281.94,217.67,284.15,212.85,286.69Z" /><path d="M10.53,170.48a26.47,26.47,0,0,1,0,3.32,4.35,4.35,0,0,1-4.24,4.07,4.32,4.32,0,0,1-4.91-3.3A50.53,50.53,0,0,1,.13,159.41c.19-2.52,2-3.92,4.58-4s4.65,1.77,5,4.75C10.07,163.34,10.23,166.6,10.53,170.48Z" /><path d="M242.1,266.17a4.68,4.68,0,0,1-4.63-2.39,4,4,0,0,1,.36-5.09c3.37-3.52,6.8-7,10.45-10.2,1.78-1.57,4.06-1.2,5.83.41s2.35,3.61,1.06,5.5c-3.06,4.46-7.12,8-11.38,11.31A4,4,0,0,1,242.1,266.17Z" /><path d="M24.72,91.35a20.74,20.74,0,0,1-.79,2.36c-1.44,3.34-2.93,6.66-4.41,10s-4,4.65-6.68,3.49-3.75-3.8-2.33-7.15q2.41-5.72,5.15-11.29a4.51,4.51,0,0,1,5.65-2.42C23.5,86.9,24.6,88.55,24.72,91.35Z" /><path d="M75.46,273a15.45,15.45,0,0,1,2.34.85c3.59,1.87,7.19,3.73,10.7,5.74,2.71,1.55,3.56,4.32,2.29,6.68s-4,3.24-6.83,1.83c-3.7-1.87-7.36-3.84-11-5.87a4.74,4.74,0,0,1-2.43-6C71.22,274.09,73,273.14,75.46,273Z"/><path d="M276.94,223.64a7.8,7.8,0,0,1-.46,1.56,87.7,87.7,0,0,1-7.76,12.67c-1.5,2-3.84,2.25-6,.88a4.36,4.36,0,0,1-1.73-6.1c2.22-4.09,4.75-8,7.27-11.92,1.27-2,3.33-2.3,5.42-1.66S276.62,221.39,276.94,223.64Z" /><path d="M149.54,302.12c-2.3,0-4.34.08-6.38,0a4.79,4.79,0,0,1-.47-9.57c4.78-.26,9.58-.3,14.36-.12,2.27.09,3.59,1.8,3.81,4.08a4.42,4.42,0,0,1-3.38,5.07C154.79,302.42,152,301.87,149.54,302.12Z" /><path d="M292.34,130.13c.16,3.82-1.06,5.62-3.53,6.17s-4.84-.38-5.56-3a138.31,138.31,0,0,1-3-13.65c-.43-2.63,1.16-4.55,3.74-5.13s4.68.46,5.37,2.91C290.67,122,291.55,126.66,292.34,130.13Z" /><path d="M289.9,191.23c-1.47,4.29-2.36,9.53-4.75,14.24-1.13,2.21-3.46,2.54-5.6,1.71a4.36,4.36,0,0,1-2.93-5.39c1.16-4.39,2.58-8.73,4.05-13,.83-2.43,2.76-3.43,5.31-3C288.31,186.15,289.87,188.1,289.9,191.23Z" /><path d="M36.74,238.54A4.45,4.45,0,0,1,34,243c-2,.89-3.94.74-5.31-.88a59.94,59.94,0,0,1-8.22-12.41,4.33,4.33,0,0,1,1.74-5.64c1.89-1.29,4.16-1.4,5.62.24a70.16,70.16,0,0,1,8.79,13.13A3,3,0,0,1,36.74,238.54Z" /><path d="M179.47,298.47c-3.19,0-4.88-1.32-5.45-3.74a4.26,4.26,0,0,1,2.86-5.36c4.5-1.45,9.1-2.65,13.71-3.71a4.11,4.11,0,0,1,5,3c.75,2.29.26,4.67-2.16,5.69C188.76,296.38,183.78,297.31,179.47,298.47Z" /><path d="M71,37.71c.1,1.84-.94,3.07-2.27,4.1-3,2.36-6.1,4.73-9.21,7-2.69,2-5.59,1.74-7.32-.5S51,43.11,53.59,41.11c3.12-2.44,6.3-4.81,9.5-7.16a4.81,4.81,0,0,1,5.44-.49A4.4,4.4,0,0,1,71,37.71Z" /></svg>
