<svg xmlns="http://www.w3.org/2000/svg" width="60" height="60" viewBox="0 0 457.11 510.81"><path d="M150.63,510.81c-2.7-3-6.83-2.75-10.11-4.59-15-8.4-22.71-21-22.77-38.08q-.21-61.11.07-122.2c0-4.42-1.07-5.48-5.4-5.36-12,.33-24,.3-35.91.05-9.5-.2-14.46-8.21-9.87-15.4,2.54-4,6.49-4.85,10.81-4.85,12.14,0,24.27-.1,36.41.06,2.93,0,4-.51,3.93-3.74-.19-15.79-.17-31.59,0-47.38,0-3-.68-4-3.83-3.89-8.48.23-17,.13-25.44.06-7.46-.06-11.7-3.72-11.71-9.92s4.4-10,11.63-10.1c8.64-.06,17.29-.09,25.93,0,2.44,0,3.44-.41,3.42-3.2q-.19-29.18,0-58.36c0-3.05-1.11-3.45-3.72-3.41-8.65.14-17.29.09-25.94,0-7,0-11.26-3.82-11.33-9.81-.08-6.23,4.25-10.08,11.51-10.12,8.32,0,16.64-.25,24.94.09,3.83.16,4.57-1,4.55-4.64-.14-37.08-.09-74.15-.08-111.23C117.71,17.62,135.29,0,162.48,0H412.37c26.86,0,44.54,17.7,44.55,44.59,0,140.32-.18,280.65.19,421,.06,21.72-13.95,41.16-34.65,44.46-.19,0-.31.51-.46.78ZM437,255.47q0-79.56.09-159.12c0-3.59-.66-4.71-4.52-4.67-19.29.24-38.58.11-57.86.11q-116.22,0-232.44-.08c-3.58,0-4.72.63-4.68,4.51.23,20.11.18,40.23,0,60.35,0,3.15.64,4.23,4,4.15,9.8-.25,19.61-.13,29.42-.08,6.53,0,10.2,3.08,11.41,9.45,1.09,5.69,2.35,11.38,3,17.13.47,4.24,2,5.58,6.45,5.57q102.26-.25,204.5-.11c10.08,0,14.14,5.21,11.85,15-3.08,13.21-6.12,26.44-9.22,39.64q-9.88,42-19.78,84.08c-.93,4-2.74,7.7-6.74,8.39-4.34.76-4.12,2.23-3.13,5.72,3.57,12.55.47,23.79-8.56,32.93s-20.13,12.11-32.44,8.76c-19.39-5.28-29.47-23.73-23.77-43,.74-2.48,1-3.62-2.19-3.59-10.14.12-20.28.07-30.43,0-2.16,0-3.21.51-2.15,2.88,1.24,2.76,1.46,5.73,1.71,8.72,1.11,13.36-6,26-18.51,32.56-11.56,6.06-26.33,4.36-36.78-4.24s-14.93-22.67-10.89-35.32c1.13-3.54,1.09-4.74-3.25-4.69-20,.23-39.9.2-59.85,0-3.59,0-4.72.66-4.69,4.54q.33,34.41,0,68.83c0,4.06.82,5.16,5.05,5.15q144.64-.21,289.3,0c4,0,5.18-.79,5.16-5C436.9,361.21,437,308.34,437,255.47ZM288.56,213h-11q-41.4,0-82.78,0c-2.08,0-4.94-1.06-4.15,3.21Q200,266.28,209,316.39c.6,3.35,1.73,4.08,5,4.07q71.57-.18,143.12,0c3,0,4.36-.86,5-3.78,7.64-33,15.24-66.09,23.21-99,1.14-4.72-.46-4.71-4-4.7C350.39,213,319.47,213,288.56,213Zm-1.25,226q-72.56,0-145.09-.09c-3.61,0-4.84.66-4.67,4.53.36,8,0,15.95.13,23.93.18,14.18,9.3,23.46,23.49,23.47q126.14.1,252.29,0c14.18,0,23.3-9.29,23.48-23.48.11-7.81-.27-15.63.14-23.42.22-4.3-1.15-5.05-5.18-5C383.7,439,335.51,439,287.31,439Zm-.05-367.14q72.54,0,145.09.07c3.49,0,4.91-.47,4.72-4.46-.37-8,0-16-.13-23.93C436.77,29.31,427.68,20,413.51,20q-126.15-.1-252.29,0c-14.21,0-23.35,9.26-23.54,23.42-.11,7.81.25,15.64-.13,23.43-.2,4.19,1,5.11,5.11,5.1C190.86,71.78,239.06,71.84,287.26,71.84ZM137.66,292.61c0,8,.12,15.94-.07,23.9-.06,2.87.42,4,3.71,4q21.9-.32,43.82,0c3.59,0,4-1.15,3.47-4.21-3-15.92-6.05-31.85-8.78-47.82-.49-2.83-1.73-3-3.92-3-11.62.06-23.25.14-34.86-.05-3.09-.05-3.47,1.17-3.42,3.77C137.75,277,137.66,284.81,137.66,292.61Zm37.91-47.15c-3.78-21-7.5-41.63-11.21-62.26-.34-1.89-1.2-2.72-3.32-2.67-7,.15-13.94.11-20.91,0-2,0-2.51.66-2.5,2.57q.08,29.85,0,59.72c0,1.78.3,2.68,2.4,2.67C151.79,245.41,163.55,245.46,175.57,245.46Zm75.94,108.85a13.71,13.71,0,1,0-13.59,13.94A13.51,13.51,0,0,0,251.51,354.31Zm85.13,13.94a13.74,13.74,0,1,0-13.52-14A13.48,13.48,0,0,0,336.64,368.25Z" /><path d="M26.28,180.58c-5.32,0-10.64.1-15.95,0C4.26,180.41.06,176.31,0,170.72s4.1-10,10.1-10c10.8-.15,21.6-.13,32.4,0,6.07.06,10.27,4.23,10.33,9.82.06,5.79-4.24,9.95-10.6,10.07C36.92,180.66,31.6,180.58,26.28,180.58Z" /><path d="M56.86,255.66a9.73,9.73,0,0,1-10.3,9.76,10,10,0,0,1-9.63-10,10.33,10.33,0,0,1,9.89-9.93A10.11,10.11,0,0,1,56.86,255.66Z" /><path d="M287.3,472.2c-6.63,0-13.26.1-19.88,0-7.1-.14-11.71-4.27-11.6-10.13s4.7-10,11.86-10q19.89-.12,39.77,0c5.89,0,9.63,2.83,10.82,7.58A10,10,0,0,1,313.44,471c-2.13,1.23-4.46,1.17-6.74,1.2C300.23,472.26,293.77,472.2,287.3,472.2Z" /><path d="M287.3,55.88c-7.8,0-15.6,0-23.4,0-6.62,0-11.33-4.27-11.32-10s4.71-9.93,11.34-10q23.9-.09,47.8,0c6.62,0,11.33,4.26,11.32,10s-4.71,9.9-11.34,10C303.57,55.92,295.43,55.88,287.3,55.88Z" /><path d="M229.67,46A10,10,0,0,1,220,55.87a10.38,10.38,0,0,1-10.3-10,10.36,10.36,0,0,1,10.41-9.91A9.94,9.94,0,0,1,229.67,46Z" /><path d="M345,45.89a10,10,0,0,1,9.66-10A10.38,10.38,0,0,1,365,45.9a10.36,10.36,0,0,1-10.35,10A10,10,0,0,1,345,45.89Z" /></svg>