
<svg  width="60" height="60" viewBox="0 0 383.02 377.55"><path d="M383,338.41c-.12,0-.32,0-.35.09-4.18,9.84-11.94,12.83-22.05,12-5.32-.43-10.71,0-16.08-.09-4,0-6.48-2.34-6.39-5.7s2.49-5.45,6.28-5.5c6.86-.08,13.71,0,20.57,0,4.81,0,6.78-2,6.79-6.83q0-45.63,0-91.27c0-4.89-1.9-6.92-6.69-6.92q-65.09,0-130.17,0c-4.61,0-6.65,2-6.66,6.61q0,45.82,0,91.65c0,4.91,2,6.76,7.26,6.76l83.41,0a10.21,10.21,0,0,1,4.41.49,5.55,5.55,0,0,1-1.2,10.64,19.75,19.75,0,0,1-3.36.09c-27.55,0-55.1,0-82.66,0-4.91,0-9.44-.75-13.17-4.13-1.94-1.76-2.56.28-3.41,1.12a102.87,102.87,0,0,1-48.21,27.08C113.67,388.88,55,350.39,45.55,291.62c-5.38-33.49,3.83-62.81,26.73-87.82l1.8-2a142.64,142.64,0,0,1-17.9-7.23c-59.55-30-74.9-109.38-30.81-159.41a31.83,31.83,0,0,1,2.81-3A5.37,5.37,0,0,1,35.65,32a5.56,5.56,0,0,1,.7,7.74c-2.14,2.75-4.59,5.26-6.68,8-41.56,55.3-9.3,134.89,59,145.63,51.6,8.11,99.76-28.8,105.2-80.62C199,64,165.14,19.61,117,12.33A90.34,90.34,0,0,0,54.6,25c-.63.39-1.24.83-1.9,1.18-3.08,1.62-6.17.91-7.82-1.79s-1-5.75,2-7.76A96.42,96.42,0,0,1,70,5.38c56.16-18.71,115.8,13,132,70.12.1.34.23.67.36,1,1.58.07,2-1.33,2.83-2.14,29.79-29.71,65.32-40,105.43-27.5,39.73,12.38,63.23,40.65,71.12,81.68.36,1.84-.08,3.93,1.3,5.54v22.45c-1.43,1.58-1.11,3.65-1.43,5.51a102.68,102.68,0,0,1-7,23.54c-1.21,2.81-3.45,4.28-6.61,3.44a5.27,5.27,0,0,1-4.2-5.82,13,13,0,0,1,1.27-3.88c7.14-17.87,9.11-36.33,4.32-54.94C359.81,87.15,336,63,298.41,55.31c-37-7.6-67.86,5-91.57,34.59a6.13,6.13,0,0,0-1.55,4.73,101,101,0,0,1-10.5,54.27,106.46,106.46,0,0,1-19.21,26.72c.85.35,1.37.61,1.92.79q36.62,11.88,57.05,44.49c1.29,2.06,2.8,2,4.68,2q42.81,0,85.64,0a10.43,10.43,0,0,0,6.21-1.92,94,94,0,0,0,21.27-19.76c2.72-3.44,5.95-4.12,8.68-2s2.89,5.52.16,8.87c-2.43,3-5,5.88-7.62,8.72-1.77,1.92-3.72,3.68-6.13,6H362.5c12,0,16.32,2.9,20.52,13.72ZM152.57,366.19c21.21-.4,43.78-10.28,62.1-29.85a8.37,8.37,0,0,0,2.4-6.3c-.08-29.53,0-59.07-.07-88.61,0-5.35,1.24-10.23,5.38-13.78,1.92-1.66,1.63-2.69.41-4.43-13.65-19.45-31.92-32.13-55-37.88a5.29,5.29,0,0,0-4.83.89Q130.62,209.38,91,205.06a7.15,7.15,0,0,0-6.22,2.13c-27.23,24.54-36.9,65-23.7,99.55C75,342.87,108.74,366.27,152.57,366.19Z" fill:"#191245"/><path d="M89,78.9c0,12.8,0,25.63,0,38.46a42.44,42.44,0,0,1-1.54,12.19c-3.72,12.66-16.08,20.59-28.38,18.17-7.66-1.51-13-5.91-14.63-13.64-1.57-7.5,1.22-13.82,7.36-18.34a27.84,27.84,0,0,1,22-5c3.24.56,4.11-.06,4.07-3.52-.2-16.58-.11-33.16-.08-49.74,0-9.54,6.3-14.34,15.55-11.88q22.52,6,45,12.07c6.66,1.8,9.57,5.52,9.58,12.38.05,21.45.14,42.89,0,64.34-.09,12.31-4.32,22.45-16.52,27.64a21.86,21.86,0,0,1-17.09.44,17.3,17.3,0,0,1-6.69-28c6.34-7,14.67-9,23.79-8.11,5.34.52,5.33.65,5.33-4.73,0-9.22,0-18.45,0-27.67,0-1.61-.07-2.75-2.08-3.28-14.91-3.89-29.79-7.92-44.68-11.89A3.49,3.49,0,0,0,89,78.9Zm47.73-4.58c0-5.49,0-5.45-5.49-6.92Q113.72,62.7,96.27,58c-7.38-2-7.22-2.05-7.41,5.7-.06,2.73.91,3.51,3.38,4.14,13.12,3.36,26.2,6.93,39.28,10.47C136.69,79.66,136.68,79.71,136.68,74.32Zm-14.59,78.45c6.69,0,13-5.59,14-12.27.21-1.37-.11-2.12-1.47-2.4-5.61-1.18-11.11-1.29-16.23,1.8-3.06,1.83-4.69,4.45-3.92,8.09C115,150.74,118.45,152.79,122.09,152.77ZM69.8,121.5A21.18,21.18,0,0,0,59.57,124c-3.36,2.06-5,5.48-4.09,8.4S60,137.3,63.7,137c5.46-.53,9.58-3.12,12-8.2,2.58-5.44,2.22-6.18-3.53-7C71.17,121.59,70.18,121.54,69.8,121.5Z" fill:"#191245"/><path d="M273.85,287.37c0-8.09,0-16.19,0-24.28.06-10.5,9-15.66,18-10.31q20.49,12.2,40.87,24.59c8.3,5.06,8.45,14.91.19,20q-20.62,12.69-41.51,25c-8.42,5-17.42-.18-17.55-9.94C273.76,304.05,273.85,295.71,273.85,287.37Zm11.37,25.69,42.49-25.65-42.49-25.53Z" fill:"#191245"/><path d="M223.63,148.92c0-7-.07-14,0-20.95A16.8,16.8,0,0,1,240.45,111c2.24-.06,4.49,0,6.73,0,10.24.1,17.52,7.16,17.51,17.35,0,2.9.7,3.71,3.64,3.64,9.1-.21,18.21-.16,27.31,0,2.35,0,2.84-.64,2.86-2.91.11-11.33,7-17.52,18.26-18.18,16.2-1,23.82,7.36,23,22.71-.64,11.56-.1,23.19-.13,34.78,0,11.19-7,18.1-18.23,18.17-1.37,0-2.75,0-4.12,0-12,0-18.47-6.31-18.74-18.29-.05-2.09-.58-2.73-2.71-2.71q-14.21.17-28.42,0c-2.21,0-2.61.7-2.65,2.74-.24,11.86-6.88,18.24-18.84,18.25a51,51,0,0,1-8.58-.29,16.64,16.64,0,0,1-13.65-16.4C223.56,162.89,223.63,155.9,223.63,148.92Zm29.92,0V133.64c0-10.87-.59-11.46-11.3-11.39-5.55,0-7.39,1.85-7.4,7.37,0,11.46,0,22.92,0,34.39,0,11.08.41,11.48,11.61,11.33,5.2-.06,7.06-2,7.08-7.32C253.57,161.66,253.55,155.31,253.55,149Zm56.12,0v15c0,11.23.36,11.59,11.48,11.47,5.28-.05,7.2-1.93,7.21-7.19,0-11.34-.25-22.68.08-34,.37-12.88-2.64-12-12.36-11.87-4.35.06-6.36,2.11-6.4,6.47C309.63,135.47,309.67,142.2,309.67,148.92Zm-28.38-5.75c-4.73,0-9.47.15-14.19,0-3.41-.15-2.59,2.35-2.21,3.72.7,2.51-2.52,7.07,2.1,7.36a229.56,229.56,0,0,0,29.09,0c5.11-.32,1.39-5.06,2.26-7.64.53-1.59.72-3.69-2.5-3.49C291,143.39,286.14,143.17,281.29,143.17Z" fill:"#191245"/><path d="M126.92,226.73a31.29,31.29,0,0,1,17.86,5.77c1.31.9,2.18,1.43,3.87.34,12.62-8.16,25.54-8.62,38.14-.25,12,8,17.27,22.54,14.14,37.12-2.35,10.94-8.15,20-15.55,28.06-9.39,10.28-20.38,18.66-31.8,26.51-3.94,2.72-8.29,3.29-12.28.62-14.52-9.76-28.41-20.3-38.92-34.57-6.59-8.95-10.6-18.86-10.38-30.15C92.37,241.69,107.54,226.72,126.92,226.73ZM126.19,238c-14.13-.22-25,12.77-22.73,27.11a43.65,43.65,0,0,0,9.18,20.14c9.13,11.75,20.87,20.57,32.86,29.12a2.14,2.14,0,0,0,2.92,0c9.85-7,19.52-14.26,27.77-23.18,6.05-6.54,11.18-13.67,13.43-22.5,2.87-11.3-1.23-22-10.38-27.62-7.6-4.65-19.86-4.39-28,4.22-2.93,3.1-5.8,2.88-9.06-.33A22.48,22.48,0,0,0,126.19,238Z" fill:"#191245"/></svg>
