<svg xmlns="http://www.w3.org/2000/svg" width="60" height="60" viewBox="0 0 359.43 359.28"><path d="M62.18,230.7a78,78,0,0,1,28.57-12.15c18.29-3.61,35.6-.83,52,7.9,10.2,5.42,20.48,10.69,30.6,16.26a19,19,0,0,0,19.15.21c14.87-7.74,29.81-15.32,44.73-23,16.09-8.24,30.61-5.75,42.77,7.51,1.4,1.53,2.3,1.14,3.72.41,12.14-6.24,24.24-12.59,36.5-18.6a28.33,28.33,0,0,1,33.93,7c8.21,9.74,6.67,21.51-3.91,28.63q-43.65,29.38-87.37,58.66c-9.81,6.58-19.69,13.08-29.44,19.76-14.27,9.77-29.85,13.4-47.07,11.32-25.09-3-50.23-5.6-75.36-8.29-9.12-1-17.67,2.35-26.47,3.82-1.28.22-1.41,1-1.1,2.19.74,2.89,1.39,5.81,1.86,8.74.78,4.84-.91,7.25-5.72,8.31q-22,4.82-44,9.54C30.66,360,28,358.3,27,353.29Q13.59,290.06.28,226.83c-1-4.69.66-7.38,5.46-8.44q22.36-4.94,44.77-9.65c4.56-1,6.94.7,8,5.38C59.8,219.54,60.93,225,62.18,230.7Zm114.66,62.07a49.44,49.44,0,0,0,27.34-7.42q32.61-19.22,65.15-38.56c4.89-2.9,5.51-6.55,2-11.12-6.4-8.36-17.24-10.68-27.13-5.66q-23.25,11.82-46.4,23.8c-10.21,5.28-20.24,5-30.3-.44-10.27-5.56-20.52-11.14-30.94-16.4-24.22-12.21-47.44-10.17-69.66,5.25a3.38,3.38,0,0,0-1.63,4c4.85,22.83,9.8,45.65,14.38,68.54.76,3.81,2.27,3.74,5.18,3.07,7.74-1.78,15.43-4,23.51-3.65s16.36,1.52,24.53,2.4c17.32,1.87,34.68,3.54,51.95,5.81,15.34,2,29.43-.34,42.23-9.36,5.7-4,11.57-7.77,17.36-11.65l98.27-65.93c5.73-3.84,6-8,.86-12.68s-12.07-5.64-18.73-2.29c-12.09,6.09-24.1,12.33-36.19,18.4a5.09,5.09,0,0,0-3.22,4.41c-.69,6-3.92,10.38-9,13.41C253.93,270,231.56,283.47,209,296.56c-13.37,7.76-28,10.54-43.16,7.3-18.32-3.9-36.5-8.51-54.75-12.77-8.87-2.07-8.71-2-6.63-10.9.67-2.85,1.88-2.86,4.1-2.31,12.76,3.14,25.5,6.43,38.34,9.25C156.81,289.32,166.48,292.94,176.84,292.77ZM13.52,230.69c.13.48.28,1,.38,1.44q3.55,17,7.11,33.89,8.11,38.63,16.22,77.25c.39,1.87.65,2.84,3,2.3,9.55-2.22,19.11-4.42,28.74-6.23,3.23-.61,3.19-1.87,2.63-4.5-4.94-23-9.75-46.14-14.58-69.22-2.84-13.6-5.61-27.23-8.58-40.8-.19-.87.8-3.41-2.06-2.78q-15.63,3.44-31.3,6.74C13.9,229,13.17,229.35,13.52,230.69Z" /><path d="M297,89.84c8.74,0,17.09-.09,25.43.06,2.11,0,2.36-1.36,3.07-2.59,4-7,10.13-10.23,18.05-9.33,7.3.83,12.34,5.07,14.83,12A18,18,0,0,1,349,112.21a17.84,17.84,0,0,1-23.2-7.54c-1.18-2.18-2.31-3-4.78-2.92-8.22.18-16.45.09-24.68,0-1.57,0-2.62.1-3.32,2-9.63,26.09-26.27,47.52-45.22,67.37-19.24,20.16-40.72,37.76-63.12,54.27-3.06,2.25-5.85,3-9.13.56-26.94-19.86-52.66-41.1-74.63-66.52-16-18.49-29.68-38.4-36.71-62.14C58.48,78.14,57,58.84,66,40.17,76.71,17.86,93.81,3.26,119,.42c17.76-2,34.18,3.31,49.38,12.42a65.65,65.65,0,0,1,8.83,6.23c1.89,1.6,2.93,1.6,4.92,0C197.51,7,215,.08,234.72.14c17.95.06,33.09,7.2,45.29,20.3C298.44,40.19,303.19,63.46,297,89.84Zm-122.61,35.5c.58-1.4.77-1.84,1-2.29q14-34.87,27.92-69.76c1.12-2.81,2.45-5.17,5.9-5.38s5.09,1.89,6.59,4.54c6.61,11.67,13.33,23.29,19.95,35,.84,1.5,1.58,2.5,3.61,2.48,14.34-.1,28.68-.07,43,0,1.59,0,2.45-.34,2.86-2.08,5.29-22.32,1.91-42.57-14.46-59.53C258.87,16,244.3,10.61,227.16,12.57,210.72,14.46,197,22,184.75,32.71c-3.88,3.37-6.29,3.43-10.1,0a87.61,87.61,0,0,0-17.09-12c-11.3-6-23.17-9.68-36.12-8.46-17,1.6-29.77,10.23-39.45,24C70.48,52.7,69.85,70.58,74.55,89.15c5.23,20.68,16.26,38.32,29.39,54.76,21.25,26.59,46.91,48.46,74,68.81,1.63,1.22,2.52.74,3.83-.25,9.23-7,18.38-14.1,27.18-21.64,22.42-19.21,43.3-39.82,59.3-64.88a125.59,125.59,0,0,0,12.36-24.13c-15.24,0-30.07-.13-44.91.08-4.19.06-6.77-1.46-8.61-5.08s-4-7.14-6.07-10.7L210.63,68c-.61,1.38-1,2.28-1.4,3.19Q194.5,108,179.79,144.74c-1.23,3.09-3,5.17-6.57,4.92-3.36-.23-4.84-2.42-5.74-5.45-2.59-8.67-5.33-17.3-8-25.94-3.81-12.33-7.61-24.66-11.57-37.51-3.58,5.95-6.93,11.32-10.06,16.81a7.7,7.7,0,0,1-7.56,4.3c-10.47-.15-20.95-.05-31.42-.05-9.11,0-9,0-9.07-9,0-2.43.6-3.1,3.06-3.07,10.85.14,21.7,0,32.54.11a4.33,4.33,0,0,0,4.38-2.47c4.62-8,9.45-15.79,14.14-23.7,1.53-2.58,3.52-4.21,6.66-3.77,2.95.41,4.42,2.35,5.23,5.11,1.89,6.42,3.92,12.8,5.9,19.2C165.84,97.61,170,111,174.41,125.34ZM347.25,95.87a6,6,0,1,0-6,5.92A6.26,6.26,0,0,0,347.25,95.87Z" ><path d="M24,101.81c-7.1,0-14.21-.08-21.31.06-2.13,0-2.64-.6-2.67-2.69-.1-9.34-.18-9.34,9.06-9.34,12,0,23.93.08,35.9-.06,2.46,0,3.06.66,3.05,3.08-.05,9,0,9-9.07,9Z" /><path d="M41.12,246c.22,1,0,1.66-1.17,1.8s-2.16.49-3.25.67c-2.39.39-6,2.41-6.88.9-1.77-2.88-1.92-6.77-2.66-10.27-.23-1,.71-1.06,1.43-1.22,2.89-.64,5.79-1.28,8.66-2,1.32-.33,1.74.26,2,1.43C39.81,240.25,40.48,243.14,41.12,246Z" /></svg>