<svg xmlns="http://www.w3.org/2000/svg" width="60" height="60" viewBox="0 0 449.91 510.74"><path d="M65,510.74c-2.15-2.05-5.13-1.77-7.68-2.65-23.31-8-38.19-28.41-38.21-53.22-.08-70.49-.32-141,.17-211.48.13-17.65-1.91-34.53-7.54-51.21A351.81,351.81,0,0,1,1.34,156C-5,127.14,11.89,99.2,40.82,90.75Q151,58.58,261.38,26.82C290.28,18.45,319,9.5,348.15,2c30.63-7.89,58.42,8.16,67.88,38.27C422,59.2,427.27,78.33,432.7,97.41c2.23,7.85-.83,12.54-9.42,15q-63.82,18.51-127.67,37Q202,176.49,108.36,203.53c-1.21.34-2.36.87-4.34,1.61,2.53,1.24,4.46.83,6.26.84q161.84,0,323.68,0a56.72,56.72,0,0,1,6,.17c5.6.59,8.57,3.35,9.64,8.94a23.56,23.56,0,0,1,.31,4.45q0,116.71,0,233.43c0,26.12-14.87,47.13-38.58,55.16-3,1-6.37.74-9.13,2.59H270.47c-2.09-2.43-5.22-4-5.92-7.59-1.42-7.26,3.23-12.36,11.57-12.36q57.12,0,114.23,0a50.63,50.63,0,0,0,12.83-1.46c13.94-3.65,26.58-16.45,26.41-37-.35-42.56-.16-85.13,0-127.7,0-4-.85-5.3-5.12-5.29q-190.3.18-380.6,0c-3.85,0-5,.87-4.94,4.86C39.07,367.14,39,410,39,453a41.8,41.8,0,0,0,1.44,11.32c4.56,16.38,18.07,26.38,36,26.48,21.28.12,42.56,0,63.85,0,17.62,0,35.25,0,52.87,0,6.33,0,10.64,3.45,11.27,9s-3,8.26-6.77,11Zm58-332.36c-.16-.72-.14-.94-.23-1Q87.77,143.64,52.8,110a2.86,2.86,0,0,0-2.5-1.15c-17,1.43-33.09,22.62-29.69,39.77,3.53,17.84,9.9,34.93,14.47,52.51.56,2.15,1.47,2.27,3.55,1.66C66.68,194.57,94.77,186.51,123,178.38ZM299,36.88c24,23,47.21,45.32,70.35,67.72,1.85,1.79,3.48,1.41,5.35.86,10.79-3.14,21.5-6.52,32.36-9.38,3.4-.89,3.73-2.19,2.87-5.1-4.33-14.73-8.45-29.53-12.84-44.25C391.78,29,374.77,17,358.31,20.37,338.39,24.4,319.24,31.39,299,36.88ZM126.49,226.28c-28.87,0-56.75.05-84.63-.08-3.22,0-2.86,1.71-2.86,3.74,0,21.91,0,43.83,0,65.74,0,2.67.5,3.71,3.46,3.67,12.95-.17,25.9-.13,38.84,0a4.59,4.59,0,0,0,4.66-2.68c4-7.23,8.2-14.37,12.33-21.54C107.5,259.11,116.75,243.11,126.49,226.28Zm216,72.7a14.07,14.07,0,0,0,1.78.28c27.25,0,54.51-.06,81.76.11,3.62,0,3.5-1.64,3.49-4.18-.05-21.6-.13-43.21.08-64.81,0-3.81-1.35-4.22-4.56-4.17-12.13.17-24.26.21-36.39,0-3.3-.06-5,1-6.57,3.83-11.72,20.57-23.63,41-35.46,61.56C345.23,294,343.92,296.38,342.48,299ZM74.37,102c.7,2.06,2.36,3,3.64,4.27,19,18.34,38.6,36.17,56.92,55.2,7.94,8.25,14.8,10.52,25.55,6.3,12.18-4.79,25.13-7.61,38.23-11.42-23.85-22.93-47.23-45.35-70.52-67.88-1.54-1.49-2.81-1.27-4.4-.8ZM223.93,58.72c23.94,23,47.21,45.26,70.38,67.64,1.82,1.75,3.42,1.4,5.38.82q22.83-6.69,45.66-13.36c1-.29,2.48.19,2.75-1.74q-34.87-33.52-69.91-67.24a3.29,3.29,0,0,0-3.56-1ZM149.4,80.28a9,9,0,0,0,.83,1.44q34.5,33.15,69,66.33c1.81,1.75,3.24,1.46,5.3.84,11.55-3.47,23.16-6.78,34.74-10.13l14.56-4.19c-23.93-23-47.29-45.42-70.58-67.91a3.7,3.7,0,0,0-4-.86C182.69,70.57,166.24,75.37,149.4,80.28Zm210.68,146c-17.38,0-34.77,0-52.15,0-2.46,0-2.83,1.93-3.69,3.42Q285.33,262.33,266.47,295c-.7,1.22-2,2.27-1.65,4.26,16.56,0,33.13-.1,49.7.09,3.22,0,5-.91,6.58-3.73,12.36-21.73,24.9-43.35,37.35-65C359.15,229.4,360.42,228.35,360.08,226.28Zm-155.46,0c-17.59,0-34.18.09-50.76-.07-3.06,0-4.69,1-6.21,3.6-12.47,21.86-25.12,43.62-37.67,65.43-.69,1.21-2,2.27-1.59,4,17.14,0,34.25-.09,51.36.09,2.83,0,3.67-1.59,4.73-3.44q11.42-19.8,22.84-39.58C192.92,246.63,198.51,236.9,204.62,226.27Zm-18,73c17.27,0,34.21-.07,51.15.07,2.73,0,3.69-1.4,4.82-3.36q15.22-26.48,30.56-52.89c3.12-5.39,6.19-10.81,9.63-16.83-17.38,0-34.09.1-50.8-.08-3.1,0-4.69,1-6.17,3.59-12.37,21.72-24.88,43.36-37.34,65C187.75,296.05,186.64,297.13,186.62,299.28Z" /><path d="M230.57,510.74c-2.21-2.52-5.49-4.15-6-8.05-.67-5.2,1.86-9.77,6.63-11.42a10.12,10.12,0,0,1,12.14,5.19c2.18,4.55.71,9.5-3.63,12.64-.72.53-2.08.28-2.17,1.64Z" /><path d="M195.65,403.48c0-16.13,0-32.26,0-48.39,0-9.86,7.68-14.59,16.14-9.74Q254.5,369.83,297,394.59c8.78,5.11,8.66,14-.2,19.17q-42.13,24.44-84.38,48.68c-9.39,5.4-16.78.9-16.79-10.08Q195.63,427.92,195.65,403.48ZM215.92,371v66.08l57.24-33Z" /></svg>