<svg  width="60" height="60" viewBox="0 0 408.65 408.65"><path d="M166.82,408.65c-4.35-3.35-5.29-8-5.74-13.2-1-11.5-2.55-23-3.77-34.44a2.75,2.75,0,0,0-2.22-2.76,162,162,0,0,1-24.87-10.37c-1.72-.89-2.6-.16-3.79.8q-14.28,11.49-28.64,22.9c-6.83,5.43-10.07,5.25-16.15-.83Q59.77,348.9,37.92,327c-6.06-6.06-6.26-9.45-.91-16.16,7.54-9.45,15.06-18.92,22.7-28.29,1.33-1.63,1.79-2.84.72-4.85a140.21,140.21,0,0,1-9.78-23.4c-.65-2-1.53-2.85-3.82-3.06-12.42-1.18-24.82-2.6-37.22-4-6.88-.78-9.6-3.86-9.6-10.7q0-32.12,0-64.23c0-7.12,2.71-10.17,9.77-11,12.4-1.38,24.8-2.79,37.21-4,2-.2,3-.78,3.61-2.77a147.44,147.44,0,0,1,9.91-23.77c1-1.77.7-2.95-.59-4.52-7.73-9.47-15.34-19-23-28.6-5.29-6.64-5-10.07,1-16.14Q59.85,59.69,81.71,37.83c5.89-5.88,9.42-6.12,15.86-1,9.56,7.62,19.14,15.22,28.59,23,1.71,1.4,2.94,1.6,4.87.57a140.49,140.49,0,0,1,23.41-9.74c2.13-.69,2.73-1.72,2.95-3.91,1.21-12.42,2.6-24.82,4-37.21.79-6.87,3.86-9.49,10.8-9.49h64.22c6.95,0,10,2.62,10.8,9.49,1.43,12.39,2.86,24.79,4,37.21.23,2.5,1.17,3.43,3.29,4.1a137.1,137.1,0,0,1,23.06,9.58c1.89,1,3.13.9,4.87-.52C292,52,301.71,44.36,311.39,36.69c6.13-4.86,9.71-4.63,15.24.89Q349,59.84,371.23,82.13c5.31,5.31,5.57,9.09.95,14.93-7.76,9.79-15.53,19.57-23.42,29.25-1.29,1.58-1.49,2.76-.55,4.52a148.3,148.3,0,0,1,9.9,23.77c.66,2,1.61,2.56,3.62,2.76,12.42,1.24,24.81,2.72,37.22,4a11.49,11.49,0,0,1,9.7,6.28v74.22c-2.54,3-5.52,5.06-9.62,5.47-12.41,1.26-24.79,2.77-37.21,4-2.25.21-3.2.95-3.85,3a137.3,137.3,0,0,1-9.57,23c-1.21,2.27-.82,3.65.71,5.52,7.57,9.26,15,18.62,22.44,28,5.42,6.82,5.24,10.09-.81,16.16q-22,22-44,44c-5.69,5.69-9.25,5.92-15.54.93q-14.5-11.52-28.94-23.13c-1.12-.9-2-1.84-3.76-.9a159,159,0,0,1-25.24,10.48,2.56,2.56,0,0,0-1.94,2.58c-1.26,12-2.79,24-3.86,36-.45,5-1.81,9.16-6.45,11.69Zm37.11-17.15h21.15c5.91,0,5.81,0,6.4-5.94,1.06-10.71,2.3-21.39,3.35-32.09.53-5.41,3.2-8.76,8.51-10.14a128,128,0,0,0,31.83-13.13c4.84-2.78,8.87-2.28,13.09,1.19,9,7.43,18.26,14.62,27.32,22,1.81,1.47,2.88,1.69,4.72-.18q16.05-16.39,32.45-32.44c2.09-2,2.34-3.28.39-5.64-7.37-8.9-14.41-18.08-21.76-27-3.51-4.25-3.85-8.3-1.08-13.09a139.87,139.87,0,0,0,12.89-30.67c2.23-7.59,4.26-9,12-9.73,11.23-1.09,22.43-2.53,33.65-3.72,1.87-.2,2.74-.63,2.72-2.81q-.15-23.73,0-47.48c0-2-.58-2.66-2.61-2.87-11.49-1.18-22.95-2.63-34.44-3.79-6.77-.69-9.37-2.4-11.15-8.75a139,139,0,0,0-13.2-31.81c-2.68-4.67-2.26-8.61,1.13-12.73,7.51-9.14,14.78-18.47,22.22-27.67,1.33-1.64,1.78-2.6-.09-4.43q-16.83-16.47-33.28-33.31c-1.79-1.84-2.75-1.49-4.42-.13-9.08,7.37-18.33,14.54-27.34,22-4.35,3.6-8.44,4.1-13.41,1.2a138.19,138.19,0,0,0-30.68-12.85c-7.47-2.2-8.88-4.27-9.62-12.09-1.07-11.1-2.53-22.16-3.65-33.25-.24-2.33-.91-3.07-3.35-3-15.56.12-31.12.1-46.68,0-2.07,0-3,.33-3.22,2.68-1.14,11.5-2.61,23-3.78,34.45-.67,6.61-2.37,9.27-8.43,11A143.33,143.33,0,0,0,133,78.75c-4.37,2.49-8.18,2-12-1.18C111.68,70,102.24,62.66,93,55.13c-1.71-1.38-2.66-1.64-4.42.16q-16.34,16.68-33,33c-2.08,2-1.64,3.11-.07,5,7.32,9,14.38,18.11,21.75,27,3.61,4.36,4,8.47,1.13,13.42a136.75,136.75,0,0,0-12.84,30.68c-2.14,7.29-4.32,8.82-11.74,9.55-11.1,1.09-22.16,2.56-33.25,3.66-2.69.26-3.43,1.1-3.4,3.81.15,14.5.07,29,.07,43.49,0,6,0,5.93,5.83,6.51,10.7,1.07,21.38,2.33,32.09,3.34,5.62.53,8.89,3.33,10.32,8.8a124.52,124.52,0,0,0,12.83,31.1c2.93,5.05,2.61,9.28-1.14,13.78-7.31,8.78-14.24,17.87-21.54,26.67-1.93,2.34-1.7,3.56.39,5.61q16.4,16.05,32.44,32.45c1.85,1.88,2.92,1.64,4.72.17,9.07-7.37,18.31-14.55,27.34-22,4.22-3.48,8.25-4,13.07-1.21a138.31,138.31,0,0,0,31.05,13c7.2,2.09,8.7,4.3,9.44,11.83,1.11,11.22,2.63,22.41,3.72,33.64.25,2.59,1.28,2.9,3.47,2.86C188.77,391.43,196.35,391.5,203.93,391.5Z" /><path d="M110.6,243.74c3.91-4.05,7.63-8,11.46-11.84q20.13-20.22,40.34-40.35c6.1-6.09,11-5.78,16.21,1,6,7.93,12,15.91,17.63,23.46l45.67-45.67c-8.36,0-17-.14-25.55.08-3.1.08-3.88-.92-3.69-3.83.24-3.71.13-7.44,0-11.17-.05-1.72.5-2.26,2.24-2.25,16.36.06,32.72,0,49.08.08,4.63,0,7.71,2.91,8.21,7.55a99,99,0,0,1,.32,10.34c0,12.77-.06,25.54.07,38.31,0,2.73-.66,3.82-3.52,3.55-4.46-.42-10.45,1.88-13-.87-2.22-2.42-.67-8.33-.7-12.69a119.42,119.42,0,0,0-.87-16.79,41.45,41.45,0,0,1-2.67,3.22q-24,24-47.95,48c-6.47,6.46-11.26,6.13-16.69-1.13-5.1-6.8-10.38-13.48-15.21-20.46-2.25-3.25-3.47-2.75-5.93-.26-16.64,16.84-33.42,33.54-50.17,50.27-7.09,7.09-12.63,6-17.32-2.95-10.72-20.54-15.32-42.44-13-65.37,3.82-38,21.57-68.06,53.5-89.31,22.9-15.24,48.35-21.45,75.64-19.11A115.9,115.9,0,0,1,279,111.47c22.26,18,36.67,41.2,42.06,69.28,7.22,37.64-1.37,71.77-26.36,101-23.44,27.44-53.75,41.35-89.82,41.71-28.45.29-53.83-9-76.27-27,3.32-4.07,6.62-8,9.81-12.07,1.22-1.56,2-.49,2.89.19a75.89,75.89,0,0,0,11.92,7.84c0-11.3.15-22.15-.09-33-.07-3.33.75-4.39,4.09-4.07a70.38,70.38,0,0,0,10.37,0c2.32-.13,2.84.69,2.82,2.9-.1,12.9,0,25.81-.11,38.71,0,2.65.53,4.15,3.32,4.69a106.46,106.46,0,0,1,11.18,2.71c2.25.71,2.39-.14,2.38-2-.06-8.64.18-17.29-.12-25.93-.13-3.68,1.08-4.57,4.48-4.27a67.57,67.57,0,0,0,10,0c2.33-.14,2.87.7,2.85,2.91-.11,9.31.08,18.62-.12,27.93-.07,3,.87,3.58,3.6,3.14a75.26,75.26,0,0,1,10.69-1c2.86,0,2.66-1.66,2.65-3.59,0-16.63.16-33.26-.13-49.88-.08-4.37,1.31-5.45,5.29-5a46.72,46.72,0,0,0,8.77,0c2.9-.25,3.5.87,3.48,3.59-.12,16.48-.06,33-.06,49.79,5.68-1.65,10.6-4.34,15.6-6.9,1.9-1,1.22-2.47,1.23-3.77,0-18.62.1-37.24,0-55.86,0-2.88.51-4,3.62-3.71,4.46.48,10.5-1.85,13,.89,2.21,2.41.57,8.36.58,12.75,0,11.8,0,23.6,0,35.64,30.74-25.43,45.86-78.22,20.94-123.4C265,104.08,202.9,89,155.44,115.05,103.32,143.69,92.18,203.8,110.6,243.74Z" /></svg>
