<svg xmlns="http://www.w3.org/2000/svg" width="60" height="60" viewBox="0 0 343.39 301.04"><path d="M343.39,55.2V67.27c-.93.24-.64,1-.71,1.63-1,8.54-1.91,17.07-2.88,25.61-1.7,14.85-3.45,29.69-5.13,44.54s-3.27,29.49-4.92,44.24c-1.71,15.18-3.58,30.35-5.15,45.55-1.64,15.82-9.35,28.41-26.13,32.27-2,.46-2.29,1.54-2.25,3.33.15,6.3-.46,12.47-3.73,18.09C285,295.34,273.55,301,259.14,301q-113,.11-226,0a32.33,32.33,0,0,1-15.81-3.59C5.47,290.91,0,280.76,0,267.29q.09-84,0-168C0,98.21,0,97.09.09,96c.77-14.9,10.6-27.86,24-31.72,5.92-1.7,12-1,18-1,2.3,0,3-.7,3.23-2.84C46.49,50.38,47.91,40.32,49,30.23A33.75,33.75,0,0,1,74.63.73C80.19-.62,85.7.2,91.25.83,110,3,128.73,5,147.46,7.1s37.44,4.37,56.17,6.5c16.74,1.9,33.49,3.7,50.22,5.58q28.93,3.26,57.85,6.58C322.84,27,331.72,32,338,41.46,340.85,45.69,342,50.47,343.39,55.2ZM16.78,216.47l2.8-2Q45,196,70.49,177.5a40.88,40.88,0,0,1,8.31-4.92c14.74-6.11,28.22-3.75,40.17,6.54,14.57,12.53,28.89,25.34,43.28,38.07,8.62,7.63,17.61,8.61,27.63,2.77q43.45-25.29,86.91-50.59a4.4,4.4,0,0,0,2.52-4.47c-.08-21.34-.35-42.69.06-64,.25-12.69-9.38-21-21.16-21-74.42.23-148.85.12-223.28.12-11.2,0-18.1,6.73-18.12,18.09C16.73,137.31,16.78,176.53,16.78,216.47Zm262.48-28.76-3.68,2.09Q237,212.1,198.37,234.41c-16.64,9.57-33.72,7.64-48.08-5.1s-28.78-25.45-43.29-38c-7.82-6.79-17.11-7.3-25.45-1.25-21.13,15.33-42.11,30.87-63.15,46.31a3.39,3.39,0,0,0-1.66,3c.08,10.16-.09,20.33.1,30.5A14.41,14.41,0,0,0,28,283.58a28.85,28.85,0,0,0,6.65.45q111.78,0,223.56,0c1.23,0,2.46,0,3.69-.08,10.57-.48,17.31-7.45,17.32-18q0-37.37,0-74.74Zm17,56.63c5.63-2,9.35-5.52,10.17-11,1.44-9.59,2.34-19.26,3.45-28.9,1.65-14.4,3.26-28.81,4.93-43.22,1.9-16.39,3.88-32.78,5.78-49.17,1.93-16.62,3.71-33.26,5.77-49.86,1.17-9.34-4.71-17.75-14-19.1-6.29-.91-12.62-1.55-18.93-2.29l-43.87-5.09q-21.6-2.49-43.21-5-21.93-2.52-43.87-5.08l-43.21-5C107.5,19.34,95.77,17.8,84,16.7c-9.64-.9-17,5-18.35,14.58-1.34,9.38-2,18.85-3.44,28.22-.51,3.47.45,3.81,3.55,3.8,32.07-.12,64.14-.08,96.21-.08,33.07,0,66.15-.08,99.23.07,10.45.05,19.13,4.48,26.05,12.33,6.26,7.11,9,15.51,9,24.87q0,69.89,0,139.79Z" /><path d="M138.86,141a35.11,35.11,0,0,1,70.21.16c0,19.07-16.25,35.28-35.24,35.17A35.42,35.42,0,0,1,138.86,141ZM174,159.36A18.06,18.06,0,0,0,192.08,141,18.27,18.27,0,0,0,174,122.92a18.55,18.55,0,0,0-18.35,18.3A18.27,18.27,0,0,0,174,159.36Z" /></svg>