<svg xmlns="http://www.w3.org/2000/svg" width="60" height="60" viewBox="0 0 332.53 343.3"><path d="M48.25,343.3c-3-1-6-1.88-8.92-3.17C27.06,334.62,19.73,325.07,17,312a3,3,0,0,0-2.25-2.67,21.68,21.68,0,0,1-.1-41,2.75,2.75,0,0,0,2.17-2.77c4.1-39.18,24.81-65.79,61.22-80.31A74.18,74.18,0,0,1,104.09,180c17-.32,34.17-1.64,50.93,3a5.24,5.24,0,0,0,1.22,0c-.23-5.09-.47-10.09-.7-15.09-.89-19-1.81-37.93-2.62-56.9-.08-1.76-.77-2-2.22-1.92q-3.84.12-7.7,0c-4.66-.14-6.79-2.22-6.84-6.8q-.09-9.72,0-19.43c.05-4.52,2.05-6.58,6.54-6.62q13.56-.11,27.14,0c2.24,0,3.29.07,2.62-2.93-4.76-21.5-9.27-43.06-13.86-64.59a16.81,16.81,0,0,1-.39-2.64c-.14-3.27,1.61-5.63,4.43-6.08a5.38,5.38,0,0,1,6.22,4.31c1.26,5.07,2.29,10.2,3.38,15.31,3.85,18.06,7.72,36.11,11.48,54.18.5,2.4,1.88,2.44,3.82,2.44q67.53-.06,135.06,0c1,0,2,0,3,0,5,.11,6.86,2,6.89,6.91q0,9.38,0,18.76c0,5-2.05,7.38-7.06,7.11-3.64-.2-4.27,1.11-4.4,4.43-.9,22.65-2,45.3-3.09,67.94q-1.45,31.45-2.89,62.91-1.54,33.3-3.13,66.6c-.39,8.25-.71,16.51-1,24.77-.11,3.15-.91,5.9-3.87,7.58Zm184.56-70.15.21-.5-.22.48c12,9.95,8,30.52-7,35.95a4,4,0,0,0-3.1,3.59,30.69,30.69,0,0,1-4.14,11.2c-1.69,2.81-3.71,5.41-5.87,8.5H216c26.82,0,53.63-.05,80.44.07,2.75,0,3.61-.78,3.7-3.45.5-13.51,1.11-27,1.75-40.5q2.19-46.35,4.46-92.69c1.32-28,2.56-56,3.94-84,.11-2.13-.38-2.58-2.45-2.58q-70.71.09-141.43,0c-2.21,0-2.47.69-2.37,2.66.62,12.38,1.05,24.77,1.63,37.15.56,12.05,1.22,24.09,1.83,36.13.06,1.22,0,2.31,1.49,3,5.33,2.22,10.18,5.35,15.12,8.43.66-1.34,1.24-2.54,1.84-3.73,10.88-21.36,35.95-33.33,59.36-28.34,28.29,6,46.71,32.16,43,61-3,23.29-21.48,42.28-44.67,46.23C240,272.33,236.26,271.57,232.81,273.15Zm-20.65-6.37a75.83,75.83,0,0,0-12-37.27c-15.86-24.39-38.35-37.62-67.61-38.46-12.37-.35-24.83-1.12-37.1,1C74,195.73,56.74,206.41,43.69,223.68a78.93,78.93,0,0,0-16,43.1Zm65.59-48.69a44.1,44.1,0,0,0-2-13.48c-5.62-18.14-24.7-32.15-45.4-29.77-16.72,1.93-28.35,10.65-35.76,25.48-1.22,2.45-.92,4.11,1.25,6.28,13.84,13.79,22.86,30.23,26.1,49.63.44,2.6,1.36,4.31,4.21,4.47,3.66.21,7.28,1,11,.74A43.5,43.5,0,0,0,277.75,218.09ZM120.11,278.21q-49.27,0-98.54,0a10.21,10.21,0,0,0-10.26,8.69c-.82,5.73,2.22,10.64,7.47,12.22a20.75,20.75,0,0,0,6,.59H215.12c.9,0,1.79,0,2.68,0,6.69-.36,11-5,10.94-11.45,0-4.68-4.66-10.2-11.44-10.15C184.91,278.35,152.51,278.21,120.11,278.21ZM28.16,310.9A23.67,23.67,0,0,0,32,320.11c5.9,8.68,14.33,12.28,24.59,12.27,19,0,38,.05,57,0,24.57-.09,49.14.41,73.71-.38a26.29,26.29,0,0,0,23.5-17.44c1.3-3.64,1.3-3.64-2.64-3.64H28.16ZM234,98v0h80.39c7.07,0,6.9,0,7.14-7,.1-3.06-.77-3.78-3.8-3.77q-81.4.15-162.8.07c-7.57,0-7.44,0-7.61,7.56-.06,2.64.66,3.27,3.27,3.26C178.36,97.93,206.17,98,234,98Z" /><path d="M232.8,273.13l.22-.48-.21.5Z" /><path d="M71,239.81c0,5.56,0,5.56-5.52,5.56-5.68,0-5.68,0-5.68-5.79,0-5.44,0-5.44,5.41-5.44C71,234.14,71,234.14,71,239.81Z" /><path d="M120,245.44c0,5.32,0,5.32-5.38,5.32-5.68,0-5.68,0-5.68-5.75,0-5.39,0-5.39,5.45-5.39C120,239.62,120,239.62,120,245.44Z" /><path d="M169,239.68c0,5.69,0,5.69-5.77,5.68-5.15,0-5.15,0-5.15-5.32,0-5.89,0-5.89,6-5.89C169,234.15,169,234.15,169,239.68Z"/><path d="M130.45,218c-5.09,0-5.09,0-5.09-5.26,0-5.65,0-5.65,5.7-5.65,5.29,0,5.29,0,5.29,5.44S136.35,218,130.45,218Z" /><path d="M71,212.53c5.44,0,5.44,0,5.44,5.59,0,5.34,0,5.34-5.39,5.34-5.64,0-5.64,0-5.64-5.8C65.36,212.53,65.36,212.53,71,212.53Z" /></svg>