<svg xmlns="http://www.w3.org/2000/svg" width="60" height="60" viewBox="0 0 278.64 212.38"><path d="M278.64,73.08c-2.24,5.17-6.45,8.11-11.38,10.46-11.16,5.32-22.2,10.89-33.34,16.28a3.26,3.26,0,0,0-2.16,3.46c.08,20.5,0,41,.1,61.49a10.16,10.16,0,0,1-2.65,7.13,113,113,0,0,1-64,37.67c-24.89,5.19-49.31,3.28-72.94-6.39a112.67,112.67,0,0,1-43.75-31.72,8.91,8.91,0,0,1-2.25-6.16c.07-20.68,0-41.36.1-62a3.55,3.55,0,0,0-2.43-3.84c-4.75-2.14-9.38-4.54-14.12-6.86a2.89,2.89,0,0,0-.36,2.17c0,13.6,0,27.21-.05,40.81a3.22,3.22,0,0,0,1.95,3.33,15.37,15.37,0,0,1,.13,26.93c-1.5.86-1.49,1.52-1,2.94,4.48,14.09,8.88,28.21,13.3,42.32.11.33.2.67.34,1.17H3.82c2.62-8.4,5.21-16.72,7.83-25,1.89-6,3.79-12,5.77-18,.54-1.64.53-2.53-1.24-3.61a15.36,15.36,0,0,1,.59-26.79,2.82,2.82,0,0,0,1.79-2.87q-.11-23.53,0-47.07A2.65,2.65,0,0,0,16.73,86c-4-2-8.14-3.5-11.64-6.33-6.75-5.47-6.8-13.48-.06-19a26.49,26.49,0,0,1,5.58-3.33q55.46-26.47,111-52.9c12.78-6.06,25.8-6,38.51.17C195.8,22,231.43,39.52,267.15,56.89c5.17,2.52,9.6,5.55,11.49,11.3ZM42.15,86.86l2.13,1.06q40.39,19.39,80.79,38.76c10.24,4.9,20.54,5,30.81,0q36.33-17.72,72.67-35.4,17.64-8.62,35.23-17.34c1.74-.86,4.32-1.57,4.3-3.64,0-1.92-2.57-2.49-4.26-3.31q-54-26.4-108-52.77c-10.07-4.91-20.26-4.86-30.33,0Q85.41,33.25,45.41,52.53,29.18,60.33,13,68.18c-1.05.51-2.43,1.07-2.45,2.31s1.3,1.87,2.34,2.38c3.24,1.6,6.55,3,9.75,4.7a8.11,8.11,0,0,0,4.93,1c8.36-1,16.72-2,25.08-3l34.51-4.09q17.53-2.07,35.06-4.14c5.57-.65,11.14-1.39,16.73-1.82a4.81,4.81,0,0,1,5.28,5.66c-.3,2.5-2.27,4-6,4.49q-21.17,2.52-42.34,5C78.22,82.69,60.54,84.73,42.15,86.86ZM221.5,105.48,219,106.69q-29.55,14.46-59.09,28.9c-12.94,6.32-26,6.24-38.93.15-20.41-9.61-40.72-19.42-61.08-29.13-.87-.41-1.66-1.12-3-1v49.7c0,11.26-.12,11.39,8.33,18.72,32.24,28,69.05,34.63,109.43,22.42,17.92-5.42,33-15.72,45.52-29.77a4,4,0,0,0,1.3-2.81C221.49,144.61,221.5,125.3,221.5,105.48Z" /></svg>